<?xml version="1.0" standalone="no"?>
 <!DOCTYPE svg PUBLIC "-//W3C//DTD SVG 1.1//EN" 
 "http://www.w3.org/Graphics/SVG/1.1/DTD/svg11.dtd"> 
<svg xmlns="http://www.w3.org/2000/svg" version="1.1" 
    width="15.24cm" height="10.16cm" viewBox="0 0 60000 40000 ">
<title>SVG Picture created as placa_cny70-Back.svg date 2014/11/02 21:12:04 </title>
  <desc>Picture generated by PCBNEW </desc>
<g style="fill:#000000; fill-opacity:1;stroke:#000000; stroke-opacity:1;
stroke-linecap:round; stroke-linejoin:round; "
 transform="translate(0 0) scale(1 1)">
</g>
<g style="fill:#000000; fill-opacity:0.0; 
stroke:#000000; stroke-width:59.0551; stroke-opacity:1; 
stroke-linecap:round; stroke-linejoin:round;">
</g>
<g style="fill:#000000; fill-opacity:1.0; 
stroke:#000000; stroke-width:59.0551; stroke-opacity:1; 
stroke-linecap:round; stroke-linejoin:round;">
<circle cx="19909.4" cy="18924.9" r="245.472" /> 
<circle cx="22590.6" cy="16675.1" r="245.472" /> 
<circle cx="24359.4" cy="18874.9" r="245.472" /> 
<circle cx="27040.6" cy="16625.1" r="245.472" /> 
<circle cx="28409.4" cy="18924.9" r="245.472" /> 
<circle cx="31090.6" cy="16675.1" r="245.472" /> 
<circle cx="32709.4" cy="18974.9" r="245.472" /> 
<circle cx="35390.6" cy="16725.1" r="245.472" /> 
<circle cx="19500" cy="17750" r="245.472" /> 
<circle cx="19500" cy="14250" r="245.472" /> 
<circle cx="23950" cy="17950" r="245.472" /> 
<circle cx="23950" cy="14450" r="245.472" /> 
<circle cx="28150" cy="18000" r="245.472" /> 
<circle cx="28150" cy="14500" r="245.472" /> 
<circle cx="32300" cy="18100" r="245.472" /> 
<circle cx="32300" cy="14600" r="245.472" /> 
<circle cx="21100" cy="15200" r="220.472" /> 
<circle cx="22100" cy="14200" r="220.472" /> 
<circle cx="21100" cy="14200" r="220.472" /> 
<circle cx="22100" cy="15200" r="220.472" /> 
<circle cx="25400" cy="15200" r="220.472" /> 
<circle cx="26400" cy="14200" r="220.472" /> 
<circle cx="25400" cy="14200" r="220.472" /> 
<circle cx="26400" cy="15200" r="220.472" /> 
<circle cx="29700" cy="15200" r="220.472" /> 
<circle cx="30700" cy="14200" r="220.472" /> 
<circle cx="29700" cy="14200" r="220.472" /> 
<circle cx="30700" cy="15200" r="220.472" /> 
<circle cx="34000" cy="15200" r="220.472" /> 
<circle cx="35000" cy="14200" r="220.472" /> 
<circle cx="34000" cy="14200" r="220.472" /> 
<circle cx="35000" cy="15200" r="220.472" /> 
<circle cx="39990.6" cy="16625.1" r="245.472" /> 
<circle cx="37309.4" cy="18874.9" r="245.472" /> 
<circle cx="36700" cy="14550" r="245.472" /> 
<circle cx="36700" cy="18050" r="245.472" /> 
<circle cx="44540.6" cy="16875.1" r="245.472" /> 
<circle cx="41859.4" cy="19124.9" r="245.472" /> 
<circle cx="41250" cy="14650" r="245.472" /> 
<circle cx="41250" cy="18150" r="245.472" /> 
<circle cx="38350" cy="15150" r="220.472" /> 
<circle cx="39350" cy="14150" r="220.472" /> 
<circle cx="38350" cy="14150" r="220.472" /> 
<circle cx="39350" cy="15150" r="220.472" /> 
<circle cx="42900" cy="15300" r="220.472" /> 
<circle cx="43900" cy="14300" r="220.472" /> 
<circle cx="42900" cy="14300" r="220.472" /> 
<circle cx="43900" cy="15300" r="220.472" /> 
<polyline style="fill-rule:evenodd;"
points="49319,13573
49695,13888
49380,14264
49003,13949
49319,13573
" /> 
<circle cx="48707" cy="14684.9" r="245.472" /> 
<circle cx="48064.2" cy="15450.9" r="245.472" /> 
<circle cx="47421.4" cy="16217" r="245.472" /> 
<circle cx="46778.6" cy="16983" r="245.472" /> 
<circle cx="46135.8" cy="17749.1" r="245.472" /> 
<circle cx="45493" cy="18515.1" r="245.472" /> 
<circle cx="44850.2" cy="19281.2" r="245.472" /> 
</g>
<g style="fill:#000000; fill-opacity:1.0; 
stroke:#000000; stroke-width:236.22; stroke-opacity:1; 
stroke-linecap:round; stroke-linejoin:round;">
<path d="M45493 18515
L45015 18515
" />
<path d="M42900 16400
L42900 15300
" />
<path d="M45015 18515
L42900 16400
" />
<path d="M35000 14200
L35550 14200
" />
<path d="M36500 15150
L38350 15150
" />
<path d="M35550 14200
L36500 15150
" />
<path d="M38350 15150
L39350 14150
" />
<path d="M39350 14150
L39700 14150
" />
<path d="M39700 14150
L40850 15300
" />
<path d="M40850 15300
L42900 15300
" />
<path d="M42900 15300
L43900 14300
" />
</g>
<g style="fill:#000000; fill-opacity:1.0; 
stroke:#000000; stroke-width:236; stroke-opacity:1; 
stroke-linecap:round; stroke-linejoin:round;">
<path d="M25400 15200
L26400 14200
" />
</g>
<g style="fill:#000000; fill-opacity:1.0; 
stroke:#000000; stroke-width:236.22; stroke-opacity:1; 
stroke-linecap:round; stroke-linejoin:round;">
<path d="M31100 14200
L30700 14200
" />
<path d="M25400 15200
L23800 15200
" />
<path d="M28100 15200
L27100 14200
" />
<path d="M22800 14200
L22100 14200
" />
<path d="M27100 14200
L26400 14200
" />
<path d="M34000 15200
L35000 14200
" />
<path d="M32100 15200
L31100 14200
" />
<path d="M29700 15200
L28100 15200
" />
<path d="M23800 15200
L22800 14200
" />
<path d="M34000 15200
L32100 15200
" />
<path d="M29700 15200
L30700 14200
" />
<path d="M21100 15200
L22100 14200
" />
<path d="M43900 15300
L43900 15350
" />
<path d="M44540 15990
L44540 16875
" />
<path d="M43900 15350
L44540 15990
" />
<path d="M46135 17749
L46135 19114
" />
<path d="M18450 15300
L19500 14250
" />
<path d="M18450 18850
L18450 15300
" />
<path d="M19900 20300
L18450 18850
" />
<path d="M44950 20300
L19900 20300
" />
<path d="M46135 19114
L44950 20300
" />
</g>
<g style="fill:#000000; fill-opacity:1.0; 
stroke:#000000; stroke-width:236; stroke-opacity:1; 
stroke-linecap:round; stroke-linejoin:round;">
<path d="M21050 14250
L21100 14200
" />
</g>
<g style="fill:#000000; fill-opacity:1.0; 
stroke:#000000; stroke-width:236.22; stroke-opacity:1; 
stroke-linecap:round; stroke-linejoin:round;">
<path d="M19500 14250
L21050 14250
" />
<path d="M26400 15200
L26500 15200
" />
<path d="M27040 15740
L27040 16625
" />
<path d="M26500 15200
L27040 15740
" />
<path d="M32300 14600
L32300 14450
" />
<path d="M32550 14200
L34000 14200
" />
<path d="M32300 14450
L32550 14200
" />
<path d="M34000 14200
L34000 13700
" />
<path d="M47830 12400
L49349 13918
" />
<path d="M35300 12400
L47830 12400
" />
<path d="M34000 13700
L35300 12400
" />
<path d="M22100 15200
L22250 15200
" />
<path d="M22590 15540
L22590 16675
" />
<path d="M22250 15200
L22590 15540
" />
<path d="M35000 15200
L35000 15250
" />
<path d="M35390 15640
L35390 16725
" />
<path d="M35000 15250
L35390 15640
" />
<path d="M39350 15150
L39950 15750
" />
<path d="M39950 16584
L39990 16625
" />
<path d="M39950 15750
L39950 16584
" />
<path d="M25400 14200
L24200 14200
" />
<path d="M24200 14200
L23950 14450
" />
<path d="M23950 14450
L23950 14350
" />
<path d="M46778 19371
L46778 16983
" />
<path d="M45300 20850
L46778 19371
" />
<path d="M19750 20850
L45300 20850
" />
<path d="M17900 19000
L19750 20850
" />
<path d="M17900 14500
L17900 19000
" />
<path d="M19350 13050
L17900 14500
" />
<path d="M22650 13050
L19350 13050
" />
<path d="M23950 14350
L22650 13050
" />
<path d="M28150 14500
L28150 14200
" />
<path d="M28150 14200
L29700 14200
" />
<path d="M28150 14500
L28150 13900
" />
<path d="M17400 14250
L17400 19200
" />
<path d="M17400 19200
L19550 21350
" />
<path d="M19550 21350
L45500 21350
" />
<path d="M19200 12450
L17400 14250
" />
<path d="M26700 12450
L19200 12450
" />
<path d="M47421 19478
L47421 16216
" />
<path d="M45550 21350
L47421 19478
" />
<path d="M45500 21350
L45550 21350
" />
<path d="M28150 13900
L26700 12450
" />
<path d="M30700 15200
L30700 15250
" />
<path d="M31090 15640
L31090 16675
" />
<path d="M30700 15250
L31090 15640
" />
<path d="M36700 14550
L36700 14350
" />
<path d="M36900 14150
L38350 14150
" />
<path d="M36700 14350
L36900 14150
" />
<path d="M38350 14150
L38350 13950
" />
<path d="M46922 12900
L48706 14684
" />
<path d="M39400 12900
L46922 12900
" />
<path d="M38350 13950
L39400 12900
" />
<path d="M41250 14650
L41250 14500
" />
<path d="M41450 14300
L42900 14300
" />
<path d="M41250 14500
L41450 14300
" />
<path d="M42900 14300
L42900 14100
" />
<path d="M46013 13400
L48064 15450
" />
<path d="M43600 13400
L46013 13400
" />
<path d="M42900 14100
L43600 13400
" />
</g>
<g style="fill:#000000; fill-opacity:1.0; 
stroke:#000000; stroke-width:59.0551; stroke-opacity:1; 
stroke-linecap:round; stroke-linejoin:round;">
<polyline style="fill-rule:evenodd;"
points="45198,19272
44897,19298
44885,19286
44855,19316
44876,19337
44914,19771
44916,19772
44857,19831
44793,19839
44872,19775
44830,19304
44359,19345
44307,19438
44409,19633
44577,19775
44782,19840
44249,19903
42420,19903
42420,19064
42354,18854
42213,18685
42018,18583
42016,18582
41923,18634
41882,19105
42353,19146
42420,19064
42420,19903
42401,19903
42401,19281
42350,19189
41881,19148
41881,18630
41803,18567
41803,18040
41719,17837
41718,17835
41614,17815
41584,17845
41584,17785
41564,17681
41361,17596
41140,17596
40937,17680
40935,17681
40915,17785
41250,18119
41584,17785
41584,17845
41280,18150
41614,18484
41718,18464
41803,18261
41803,18040
41803,18567
41798,18563
41588,18629
41584,18632
41584,18514
41250,18180
41219,18210
41219,18150
40885,17815
40781,17835
40696,18038
40696,18259
40780,18462
40781,18464
40885,18484
41219,18150
41219,18210
40915,18514
40935,18618
41138,18703
41359,18703
41562,18619
41564,18618
41584,18514
41584,18632
41419,18770
41317,18966
41317,18967
41368,19060
41840,19101
41881,18630
41881,19148
41878,19147
41837,19619
41919,19686
42130,19620
42299,19478
42401,19283
42401,19281
42401,19903
41836,19903
41836,19144
41365,19102
41298,19185
41363,19395
41505,19564
41700,19666
41702,19667
41795,19615
41836,19144
41836,19903
39780,19903
37870,19895
37870,18814
37804,18604
37663,18435
37468,18333
37466,18332
37373,18384
37332,18855
37803,18896
37870,18814
37870,19895
37851,19895
37851,19031
37800,18939
37331,18898
37331,18380
37248,18313
37181,18334
37253,18161
37253,17940
37169,17737
37168,17735
37064,17715
37034,17745
37034,17685
37014,17581
36811,17496
36590,17496
36387,17580
36385,17581
36365,17685
36700,18019
37034,17685
37034,17745
36730,18050
36735,18055
36705,18085
36700,18080
36669,18110
36669,18050
36335,17715
36231,17735
36146,17938
36146,18159
36230,18362
36231,18364
36335,18384
36669,18050
36669,18110
36365,18414
36385,18518
36588,18603
36809,18603
36830,18594
36767,18716
36767,18717
36818,18810
37253,18848
37273,18869
37303,18839
37292,18827
37331,18380
37331,18898
37328,18897
37287,19369
37369,19436
37580,19370
37749,19228
37851,19033
37851,19031
37851,19895
37286,19892
37286,18894
36815,18852
36748,18935
36813,19145
36955,19314
37150,19416
37152,19417
37245,19365
37286,18894
37286,19892
33270,19875
33270,18914
33204,18704
33063,18535
32868,18433
32866,18432
32853,18439
32853,17990
32769,17787
32768,17785
32664,17765
32634,17795
32634,17735
32614,17631
32411,17546
32190,17546
31987,17630
31985,17631
31965,17735
32300,18069
32634,17735
32634,17795
32330,18100
32335,18105
32305,18135
32300,18130
32269,18160
32269,18100
31935,17765
31831,17785
31746,17988
31746,18209
31830,18412
31831,18414
31935,18434
32269,18100
32269,18160
31965,18464
31985,18568
32188,18653
32252,18653
32167,18816
32167,18817
32218,18910
32653,18948
32673,18969
32703,18939
32692,18927
32731,18480
32672,18433
32768,18414
32853,18211
32853,17990
32853,18439
32773,18484
32732,18955
33203,18996
33270,18914
33270,19875
33251,19875
33251,19131
33200,19039
32728,18997
32687,19469
32769,19536
32980,19470
33149,19328
33251,19133
33251,19131
33251,19875
32686,19873
32686,18994
32215,18952
32148,19035
32213,19245
32355,19414
32550,19516
32552,19517
32645,19465
32686,18994
32686,19873
28970,19857
28970,18864
28904,18654
28763,18485
28703,18453
28568,18383
28566,18382
28560,18386
28563,18383
28514,18334
28618,18314
28703,18111
28703,17890
28619,17687
28618,17685
28514,17665
28484,17695
28484,17635
28464,17531
28261,17446
28040,17446
27837,17530
27835,17531
27815,17635
28150,17969
28484,17635
28484,17695
28180,18000
28185,18005
28155,18035
28150,18030
28119,18060
28119,18000
27785,17665
27681,17685
27596,17888
27596,18109
27680,18312
27681,18314
27785,18334
28119,18000
28119,18060
27815,18364
27835,18468
28000,18537
27996,18541
27999,18545
27969,18570
27867,18766
27867,18767
27918,18860
28353,18898
28373,18919
28403,18889
28392,18877
28426,18484
28462,18469
28464,18468
28484,18364
28484,18364
28525,18405
28484,18428
28473,18434
28432,18905
28903,18946
28970,18864
28970,19857
28951,19857
28951,19081
28900,18989
28428,18947
28387,19419
28469,19486
28680,19420
28849,19278
28951,19083
28951,19081
28951,19857
28386,19855
28386,18944
27915,18902
27848,18985
27913,19195
28055,19364
28250,19466
28252,19467
28345,19415
28386,18944
28386,19855
24920,19840
24920,18814
24854,18604
24713,18435
24518,18333
24516,18332
24503,18339
24503,17840
24419,17637
24418,17635
24314,17615
24284,17645
24284,17585
24264,17481
24061,17396
23840,17396
23637,17480
23635,17481
23615,17585
23950,17919
24284,17585
24284,17645
23980,17950
24314,18284
24418,18264
24503,18061
24503,17840
24503,18339
24423,18384
24382,18855
24853,18896
24920,18814
24920,19840
24901,19840
24901,19031
24850,18939
24381,18898
24381,18380
24298,18313
24283,18318
24284,18314
23950,17980
23919,18010
23919,17950
23585,17615
23481,17635
23396,17838
23396,18059
23480,18262
23481,18264
23585,18284
23919,17950
23919,18010
23615,18314
23635,18418
23838,18503
23940,18503
23919,18520
23817,18716
23817,18717
23868,18810
24303,18848
24323,18869
24353,18839
24342,18827
24381,18380
24381,18898
24378,18897
24337,19369
24419,19436
24630,19370
24799,19228
24901,19033
24901,19031
24901,19840
24336,19838
24336,18894
23865,18852
23798,18935
23863,19145
24005,19314
24200,19416
24202,19417
24295,19365
24336,18894
24336,19838
20470,19822
20470,18864
20404,18654
20263,18485
20068,18383
20066,18382
20053,18389
20053,17640
19969,17437
19968,17435
19864,17415
19530,17750
19864,18084
19968,18064
20053,17861
20053,17640
20053,18389
19973,18434
19932,18905
20403,18946
20470,18864
20470,19822
20451,19822
20451,19081
20400,18989
19931,18948
19931,18430
19848,18363
19834,18368
19834,18114
19500,17780
19469,17810
19469,17750
19135,17415
19031,17435
18946,17638
18946,17859
19030,18062
19031,18064
19135,18084
19469,17750
19469,17810
19165,18114
19185,18218
19388,18303
19609,18303
19812,18219
19814,18218
19834,18114
19834,18368
19638,18429
19469,18570
19367,18766
19367,18767
19418,18860
19890,18901
19931,18430
19931,18948
19928,18947
19887,19419
19969,19486
20180,19420
20349,19278
20451,19083
20451,19081
20451,19822
20277,19821
19795,19442
19845,19415
19883,18981
19903,18960
19873,18930
19862,18942
19415,18902
19348,18985
19392,19125
18926,18759
18846,17487
18846,17279
19185,17282
19165,17385
19500,17719
19834,17385
19815,17287
42823,17478
43819,18230
44384,18795
44384,18795
44480,18860
44355,19008
44289,19218
44288,19220
44355,19303
44827,19261
44801,18972
44847,19007
44867,19233
44855,19245
44885,19275
44906,19254
45147,19233
45198,19272
" /> 
</g>
<g style="fill:#000000; fill-opacity:0.0; 
stroke:#000000; stroke-width:157.48; stroke-opacity:1; 
stroke-linecap:round; stroke-linejoin:round;">
<polyline fill="none;"
points="45198,19272
44897,19298
44885,19286
44855,19316
44876,19337
44914,19771
44916,19772
44857,19831
44793,19839
44872,19775
44830,19304
44359,19345
44307,19438
44409,19633
44577,19775
44782,19840
44249,19903
42420,19903
42420,19064
42354,18854
42213,18685
42018,18583
42016,18582
41923,18634
41882,19105
42353,19146
42420,19064
42420,19903
42401,19903
42401,19281
42350,19189
41881,19148
41881,18630
41803,18567
41803,18040
41719,17837
41718,17835
41614,17815
41584,17845
41584,17785
41564,17681
41361,17596
41140,17596
40937,17680
40935,17681
40915,17785
41250,18119
41584,17785
41584,17845
41280,18150
41614,18484
41718,18464
41803,18261
41803,18040
41803,18567
41798,18563
41588,18629
41584,18632
41584,18514
41250,18180
41219,18210
41219,18150
40885,17815
40781,17835
40696,18038
40696,18259
40780,18462
40781,18464
40885,18484
41219,18150
41219,18210
40915,18514
40935,18618
41138,18703
41359,18703
41562,18619
41564,18618
41584,18514
41584,18632
41419,18770
41317,18966
41317,18967
41368,19060
41840,19101
41881,18630
41881,19148
41878,19147
41837,19619
41919,19686
42130,19620
42299,19478
42401,19283
42401,19281
42401,19903
41836,19903
41836,19144
41365,19102
41298,19185
41363,19395
41505,19564
41700,19666
41702,19667
41795,19615
41836,19144
41836,19903
39780,19903
37870,19895
37870,18814
37804,18604
37663,18435
37468,18333
37466,18332
37373,18384
37332,18855
37803,18896
37870,18814
37870,19895
37851,19895
37851,19031
37800,18939
37331,18898
37331,18380
37248,18313
37181,18334
37253,18161
37253,17940
37169,17737
37168,17735
37064,17715
37034,17745
37034,17685
37014,17581
36811,17496
36590,17496
36387,17580
36385,17581
36365,17685
36700,18019
37034,17685
37034,17745
36730,18050
36735,18055
36705,18085
36700,18080
36669,18110
36669,18050
36335,17715
36231,17735
36146,17938
36146,18159
36230,18362
36231,18364
36335,18384
36669,18050
36669,18110
36365,18414
36385,18518
36588,18603
36809,18603
36830,18594
36767,18716
36767,18717
36818,18810
37253,18848
37273,18869
37303,18839
37292,18827
37331,18380
37331,18898
37328,18897
37287,19369
37369,19436
37580,19370
37749,19228
37851,19033
37851,19031
37851,19895
37286,19892
37286,18894
36815,18852
36748,18935
36813,19145
36955,19314
37150,19416
37152,19417
37245,19365
37286,18894
37286,19892
33270,19875
33270,18914
33204,18704
33063,18535
32868,18433
32866,18432
32853,18439
32853,17990
32769,17787
32768,17785
32664,17765
32634,17795
32634,17735
32614,17631
32411,17546
32190,17546
31987,17630
31985,17631
31965,17735
32300,18069
32634,17735
32634,17795
32330,18100
32335,18105
32305,18135
32300,18130
32269,18160
32269,18100
31935,17765
31831,17785
31746,17988
31746,18209
31830,18412
31831,18414
31935,18434
32269,18100
32269,18160
31965,18464
31985,18568
32188,18653
32252,18653
32167,18816
32167,18817
32218,18910
32653,18948
32673,18969
32703,18939
32692,18927
32731,18480
32672,18433
32768,18414
32853,18211
32853,17990
32853,18439
32773,18484
32732,18955
33203,18996
33270,18914
33270,19875
33251,19875
33251,19131
33200,19039
32728,18997
32687,19469
32769,19536
32980,19470
33149,19328
33251,19133
33251,19131
33251,19875
32686,19873
32686,18994
32215,18952
32148,19035
32213,19245
32355,19414
32550,19516
32552,19517
32645,19465
32686,18994
32686,19873
28970,19857
28970,18864
28904,18654
28763,18485
28703,18453
28568,18383
28566,18382
28560,18386
28563,18383
28514,18334
28618,18314
28703,18111
28703,17890
28619,17687
28618,17685
28514,17665
28484,17695
28484,17635
28464,17531
28261,17446
28040,17446
27837,17530
27835,17531
27815,17635
28150,17969
28484,17635
28484,17695
28180,18000
28185,18005
28155,18035
28150,18030
28119,18060
28119,18000
27785,17665
27681,17685
27596,17888
27596,18109
27680,18312
27681,18314
27785,18334
28119,18000
28119,18060
27815,18364
27835,18468
28000,18537
27996,18541
27999,18545
27969,18570
27867,18766
27867,18767
27918,18860
28353,18898
28373,18919
28403,18889
28392,18877
28426,18484
28462,18469
28464,18468
28484,18364
28484,18364
28525,18405
28484,18428
28473,18434
28432,18905
28903,18946
28970,18864
28970,19857
28951,19857
28951,19081
28900,18989
28428,18947
28387,19419
28469,19486
28680,19420
28849,19278
28951,19083
28951,19081
28951,19857
28386,19855
28386,18944
27915,18902
27848,18985
27913,19195
28055,19364
28250,19466
28252,19467
28345,19415
28386,18944
28386,19855
24920,19840
24920,18814
24854,18604
24713,18435
24518,18333
24516,18332
24503,18339
24503,17840
24419,17637
24418,17635
24314,17615
24284,17645
24284,17585
24264,17481
24061,17396
23840,17396
23637,17480
23635,17481
23615,17585
23950,17919
24284,17585
24284,17645
23980,17950
24314,18284
24418,18264
24503,18061
24503,17840
24503,18339
24423,18384
24382,18855
24853,18896
24920,18814
24920,19840
24901,19840
24901,19031
24850,18939
24381,18898
24381,18380
24298,18313
24283,18318
24284,18314
23950,17980
23919,18010
23919,17950
23585,17615
23481,17635
23396,17838
23396,18059
23480,18262
23481,18264
23585,18284
23919,17950
23919,18010
23615,18314
23635,18418
23838,18503
23940,18503
23919,18520
23817,18716
23817,18717
23868,18810
24303,18848
24323,18869
24353,18839
24342,18827
24381,18380
24381,18898
24378,18897
24337,19369
24419,19436
24630,19370
24799,19228
24901,19033
24901,19031
24901,19840
24336,19838
24336,18894
23865,18852
23798,18935
23863,19145
24005,19314
24200,19416
24202,19417
24295,19365
24336,18894
24336,19838
20470,19822
20470,18864
20404,18654
20263,18485
20068,18383
20066,18382
20053,18389
20053,17640
19969,17437
19968,17435
19864,17415
19530,17750
19864,18084
19968,18064
20053,17861
20053,17640
20053,18389
19973,18434
19932,18905
20403,18946
20470,18864
20470,19822
20451,19822
20451,19081
20400,18989
19931,18948
19931,18430
19848,18363
19834,18368
19834,18114
19500,17780
19469,17810
19469,17750
19135,17415
19031,17435
18946,17638
18946,17859
19030,18062
19031,18064
19135,18084
19469,17750
19469,17810
19165,18114
19185,18218
19388,18303
19609,18303
19812,18219
19814,18218
19834,18114
19834,18368
19638,18429
19469,18570
19367,18766
19367,18767
19418,18860
19890,18901
19931,18430
19931,18948
19928,18947
19887,19419
19969,19486
20180,19420
20349,19278
20451,19083
20451,19081
20451,19822
20277,19821
19795,19442
19845,19415
19883,18981
19903,18960
19873,18930
19862,18942
19415,18902
19348,18985
19392,19125
18926,18759
18846,17487
18846,17279
19185,17282
19165,17385
19500,17719
19834,17385
19815,17287
42823,17478
43819,18230
44384,18795
44384,18795
44480,18860
44355,19008
44289,19218
44288,19220
44355,19303
44827,19261
44801,18972
44847,19007
44867,19233
44855,19245
44885,19275
44906,19254
45147,19233
45198,19272
" /> 
</g> 
</svg>
